<?xml version="1.0" standalone="no"?>
<!DOCTYPE svg PUBLIC "-//W3C//DTD SVG 20010904//EN"
 "http://www.w3.org/TR/2001/REC-SVG-20010904/DTD/svg10.dtd">
<svg version="1.0" xmlns="http://www.w3.org/2000/svg"
 width="720.000000pt" height="720.000000pt" viewBox="0 0 720.000000 720.000000"
 preserveAspectRatio="xMidYMid meet">
<metadata>
Created by potrace 1.14, written by Peter Selinger 2001-2017
</metadata>
<g transform="translate(0.000000,720.000000) scale(0.100000,-0.100000)"
fill="#000000" stroke="none">
<path d="M423 6865 c-207 -45 -364 -203 -408 -413 -22 -100 -22 -3364 0 -3464
44 -208 197 -363 406 -413 43 -10 116 -15 222 -15 l157 0 0 -542 0 -543 24
-51 c58 -125 199 -176 323 -118 19 10 330 295 691 635 l656 619 1632 0 c1592
0 1633 0 1708 20 43 11 101 32 129 47 77 41 176 145 215 225 66 135 63 36 60
1901 l-3 1692 -27 73 c-68 186 -206 307 -396 347 -97 21 -5294 21 -5389 0z
m5321 -487 c14 -20 16 -194 16 -1664 0 -1573 -1 -1642 -18 -1657 -17 -15 -157
-17 -1713 -19 l-1694 -3 -40 -21 c-22 -12 -258 -228 -525 -479 l-485 -457 -5
393 -5 394 -27 46 c-15 25 -43 58 -62 73 -69 52 -95 56 -392 56 -261 0 -275 1
-294 20 -20 20 -20 33 -20 1658 0 1466 2 1640 16 1660 l15 22 2609 0 2609 0
15 -22z"/>
<path d="M4375 6216 c-89 -41 -145 -125 -145 -218 0 -90 56 -173 145 -214 49
-23 56 -24 378 -24 314 0 328 -1 347 -20 20 -20 20 -33 20 -662 l0 -643 24
-50 c44 -94 122 -145 218 -145 67 0 123 26 169 77 73 81 70 49 67 808 l-3 680
-24 65 c-51 143 -145 252 -267 310 -112 54 -163 60 -539 60 -335 0 -341 -1
-390 -24z"/>
<path d="M6865 5341 c-51 -23 -118 -98 -133 -149 -9 -29 -12 -422 -12 -1556 0
-1503 0 -1516 -20 -1536 -19 -19 -33 -20 -328 -20 -354 0 -383 -5 -450 -70
-79 -76 -76 -58 -82 -499 l-5 -394 -485 458 c-267 251 -503 467 -525 478 l-40
22 -1105 0 -1105 0 -46 -27 c-85 -50 -129 -122 -129 -212 0 -64 26 -120 76
-168 76 -73 0 -68 1131 -68 l1018 0 663 -624 c704 -664 695 -656 791 -656 94
0 175 55 217 145 l24 50 0 542 0 541 223 4 c209 4 226 6 289 30 149 56 247
141 308 264 62 127 60 50 60 1734 l0 1535 -24 50 c-28 59 -76 108 -128 129
-50 21 -134 20 -183 -3z"/>
</g>
</svg>
